<?xml version="1.0" encoding="utf-8"?>
<!DOCTYPE svg PUBLIC "-//W3C//DTD SVG 1.1//EN" "http://www.w3.org/Graphics/SVG/1.1/DTD/svg11.dtd">
<svg version="1.1" id="Layer_1" xmlns:ev="http://www.w3.org/2001/xml-events"
	 xmlns="http://www.w3.org/2000/svg" xmlns:xlink="http://www.w3.org/1999/xlink" x="0px" y="0px" width="32px" height="32px"
	 viewBox="-3.5 -7.5 32 32" enable-background="new -3.5 -7.5 32 32" xml:space="preserve">
<filter  id="Filter_0">
	<feFlood  result="floodOut" flood-opacity="1" flood-color="rgb( 5, 114, 206 )"></feFlood>
	<feComposite  in2="SourceGraphic" in="floodOut" operator="atop" result="compOut"></feComposite>
	<feBlend  in2="SourceGraphic" in="compOut" mode="normal"></feBlend>
</filter>
<g filter="url(#Filter_0)">
	<path fill="#14B5BF" d="M22.971,16.905H1.158c-0.602,0-1.09-0.488-1.09-1.091v-11.7c0-0.602,0.488-1.091,1.09-1.091h1.949V2.558
		c0-0.301,0.181-0.545,0.483-0.545h0.903c0.301,0,0.545,0.244,0.545,0.545v0.465h3.913l0.387-1.931c0-0.602,1.033-1.09,1.635-1.09
		h7.044c0.602,0,1.635,0.488,1.635,1.09l0.387,1.931h2.932c0.602,0,1.09,0.489,1.09,1.091v11.7
		C24.061,16.417,23.572,16.905,22.971,16.905z M6.066,5.517c0-0.301-0.244-0.545-0.545-0.545H2.499
		c-0.301,0-0.545,0.244-0.545,0.545v0.886c0,0.301,0.244,0.545,0.545,0.545h3.022c0.301,0,0.545-0.244,0.545-0.545V5.517z
		 M14.245,4.864c-3.011,0-5.328,1.879-5.328,4.89c0,3.012,2.317,5.203,5.328,5.203c3.012,0,4.828-2.191,4.828-5.203
		C19.073,6.743,17.257,4.864,14.245,4.864z M13.995,13.82c-2.107,0.074-4.067-1.959-4.067-4.066c0-2.108,1.961-3.907,4.067-3.817
		c2.907,0.125,4.067,1.709,4.067,3.817C18.062,12.493,16.488,13.734,13.995,13.82z M15.438,6.903c-0.752,0-1.551,0.735-1.551,1.488
		c0,0.753,0.799,1.613,1.551,1.613c0.754,0,1.551-0.859,1.551-1.613C16.988,7.638,16.191,6.903,15.438,6.903z"/>
</g>
</svg>
