<?xml version="1.0" encoding="utf-8"?>
<!DOCTYPE svg PUBLIC "-//W3C//DTD SVG 1.1//EN" "http://www.w3.org/Graphics/SVG/1.1/DTD/svg11.dtd">
<svg version="1.1" id="Layer_1" xmlns:ev="http://www.w3.org/2001/xml-events"
	 xmlns="http://www.w3.org/2000/svg" xmlns:xlink="http://www.w3.org/1999/xlink" x="0px" y="0px" width="32px" height="32px"
	 viewBox="-3.5 -4.5 32 32" enable-background="new -3.5 -4.5 32 32" xml:space="preserve">
<path fill="#0572CE" d="M23.652,22.002H2.309c-0.729,0-1.32-0.59-1.32-1.318V1.327c0-0.729,0.591-1.319,1.32-1.319h21.343
	c0.729,0,1.32,0.59,1.32,1.319v19.356C24.973,21.412,24.381,22.002,23.652,22.002z M24,2.35c0-0.729-0.591-1.319-1.318-1.319H3.347
	c-0.728,0-1.319,0.59-1.319,1.319v14.337c0,0.729,0.591,1.319,1.319,1.319h19.334c0.728,0,1.318-0.591,1.318-1.319V2.35z
	 M19.061,8.992c-1.658,0-3.063-1.386-3.063-3.014c0-1.627,1.405-2.946,3.063-2.946c1.657,0,3.002,1.319,3.002,2.946
	C22.062,7.606,20.718,8.992,19.061,8.992z M4.32,16.98c-0.719,0-1.304-0.61-1.304-1.359v-1.798L8.38,9.354
	c0.458-0.484,1.292-0.484,1.756,0l2.957,3.013l1.171-1.201c0.463-0.484,1.207-0.484,1.67,0l6.041,5.814H4.32z"/>
</svg>
